<svg width="100" height="100" xmlns="http://www.w3.org/2000/svg">

 <g>
  <title>background</title>
  <rect fill="none" id="canvas_background" height="102" width="102" y="-1" x="-1"/>
 </g>
 <g>
  <title>Layer 1</title>
  <g id="svg_1">
   <path id="svg_2" d="m79.854,3.689c-9.218,0 -17.005,15.621 -17.005,34.111s7.787,34.111 17.005,34.111s17.005,-15.621 17.005,-34.111s-7.787,-34.111 -17.005,-34.111zm1.631,48.134c-3.68,0 -6.663,-6.278 -6.663,-14.022s2.983,-14.022 6.663,-14.022c3.679,0 6.663,6.278 6.663,14.022s-2.984,14.022 -6.663,14.022zm-21.788,-14.022c0,-15.248 4.955,-28.353 12.049,-34.111l-50.254,0c-9.495,0 -17.583,15.36 -18.298,34.111l7.268,0l0,2.621l-7.32,0c0,0.026 0,0.053 0,0.079l0,55.81l56.556,0l0,-55.889l-7.118,0l0,-2.621l7.117,0zm-23.168,0l0,2.621l-10.016,0l0,-2.621l10.016,0zm-23.05,0l10.016,0l0,2.621l-10.016,0l0,-2.621zm36.084,2.621l-10.016,0l0,-2.621l10.016,0l0,2.621zm22.183,31.49l-8.924,0l0,-5.826l0,-8.353c2.137,6.222 5.242,11.189 8.924,14.179z"/>
  </g>
 </g>
</svg>